<?xml version="1.0" encoding="UTF-8"?><svg id="Layer_3" xmlns="http://www.w3.org/2000/svg" viewBox="0 0 1080 1080"><defs><style>.cls-1{fill:none;stroke:#fff;stroke-miterlimit:10;stroke-width:42px;}</style></defs><path class="cls-1" d="m540,322.62h-147.34c-14.34,0-25.51,12.45-23.96,26.71l42,386.55c1.33,12.23,11.66,21.5,23.96,21.5h24.03c11.17,0,20.88-7.67,23.45-18.54l54.05-261.5c.85-4.13,6.75-4.13,7.6,0l54.05,261.5c2.58,10.87,12.28,18.54,23.45,18.54h24.03c12.3,0,22.63-9.27,23.96-21.5l42-386.55c1.55-14.26-9.62-26.71-23.96-26.71h-147.34Z"/><line class="cls-1" x1="370.34" y1="384.73" x2="706.63" y2="384.73"/></svg>