<?xml version="1.0" encoding="UTF-8"?><svg id="Layer_10" xmlns="http://www.w3.org/2000/svg" viewBox="0 0 1080 1080"><defs><style>.cls-1{fill:none;stroke:#fff;stroke-miterlimit:10;stroke-width:42px;}</style></defs><path class="cls-1" d="m643.19,499.79c14.28-20.4,22.67-45.24,22.68-72.04.03-69.48-55.48-125.42-124.95-125.91-69.93-.49-126.77,56.04-126.77,125.86,0,26.75,8.35,51.55,22.58,71.94,16.92,24.25,17.05,56.34.1,80.56-14.28,20.4-22.67,45.24-22.68,72.04-.03,69.48,55.48,125.42,124.95,125.91,69.93.49,126.77-56.04,126.77-125.86,0-26.75-8.35-51.55-22.58-71.94-16.92-24.25-17.05-56.34-.1-80.56Z"/><circle class="cls-1" cx="540" cy="537.17" r="68.7"/></svg>