<?xml version="1.0" encoding="UTF-8"?><svg id="Layer_3" xmlns="http://www.w3.org/2000/svg" viewBox="0 0 1080 1080"><defs><style>.cls-1{stroke-linecap:round;}.cls-1,.cls-2{fill:none;stroke:#fff;stroke-miterlimit:10;stroke-width:42px;}</style></defs><path class="cls-2" d="m287.22,443.75s-18.6,60.69-26.43,89.57l-7.34,19.09s-24.96,39.65-7.34,67.55c0,0,36.92,77.15,461.67,61.57,26.54-.97,52.67-7.37,76.43-19.23,13.14-6.55,26.58-15.21,37.73-26.51,33.69-34.14,18.59-92.35-27.71-104.91-.62-.17-1.25-.33-1.89-.49,0,0-167.4-10.28-296.62-142.43,0,0-36.71-57.27-73.42-26.43,0,0-10.28,14.68,1.47,39.65,0,0,13.22,51.39-19.09,60.2s-67.55-14.68-77.82-38.18c-10.28-23.49-39.65-22.03-39.65,20.56Z"/><path class="cls-1" d="m326.87,423.19s28.88,126.77,189.42,173.76"/><path class="cls-1" d="m255.9,559.75c-27.33-6.97,526.66,109.64,563.86-7.83"/></svg>