<?xml version="1.0" encoding="UTF-8"?><svg id="Layer_3" xmlns="http://www.w3.org/2000/svg" viewBox="0 0 1080 1080"><defs><style>.cls-1{stroke-linecap:round;}.cls-1,.cls-2{fill:none;stroke:#fff;stroke-miterlimit:10;stroke-width:42px;}</style></defs><path class="cls-1" d="m434.61,724.78s102.02-94.65,218.8,0"/><line class="cls-1" x1="527.95" y1="640.48" x2="527.95" y2="671.21"/><line class="cls-1" x1="555.18" y1="642.13" x2="555.18" y2="672.86"/><path class="cls-2" d="m667.42,559.92c13.22-20.35,5.98-46.18-18.34-46.18h-217.76c-24.32,0-32.46,26.45-18.34,46.18,61.37,85.74,199.47,84.64,254.43,0Z"/><path class="cls-2" d="m539.36,268.55h-.08c-51.55,1.17-75.9,54.47-87.34,107.85-11.95,55.73,30.34,108.35,87.34,108.35h.08c57,0,99.3-52.61,87.34-108.35-11.45-53.38-35.8-106.68-87.34-107.85Z"/></svg>