<?xml version="1.0" encoding="UTF-8"?><svg id="Layer_11" xmlns="http://www.w3.org/2000/svg" viewBox="0 0 1080 1080"><defs><style>.cls-1{fill:none;stroke:#fff;stroke-miterlimit:10;stroke-width:42px;}</style></defs><path class="cls-1" d="m616.32,322.19c-4.14-13.08-16.28-21.97-30.01-21.97h-92.62c-13.72,0-25.86,8.89-30.01,21.97l-65.05,205.42c-2.13,6.74-1.94,14,.56,20.61l79.63,211.18c4.62,12.26,16.35,20.37,29.45,20.37h63.47c13.1,0,24.83-8.11,29.45-20.37l79.63-211.18c2.49-6.61,2.69-13.87.56-20.61l-65.05-205.42Z"/><path class="cls-1" d="m399.19,548.23l34.67-24.18c21.16-14.76,49.93-11.88,67.75,6.78h0c28.34,29.69,75.84,29.36,103.77-.71l51.54-55.51"/></svg>