<?xml version="1.0" encoding="UTF-8"?><svg id="Seating" xmlns="http://www.w3.org/2000/svg" viewBox="0 0 1080 1080"><defs><style>.cls-1{fill:none;stroke:#fff;stroke-miterlimit:10;stroke-width:42px;}.cls-2{fill:#fff;stroke-width:0px;}</style></defs><path class="cls-2" d="m808.86,523.71l-56.46-124.22h0c-12.29-27.03-39.41-44.49-69.1-44.49h-283.35c-29.69,0-56.81,17.46-69.1,44.49l-56.47,124.22c-7.29,16.03-8.77,34.22-4.17,51.21l36.72,135.88c8.93,33.03,39.06,56.1,73.27,56.1h322.83c34.21,0,64.35-23.07,73.27-56.1l36.72-135.88c4.59-17,3.11-35.19-4.17-51.21Zm-73.1,176.13c-3.99,14.75-17.45,25.06-32.73,25.06h-322.83c-15.28,0-28.74-10.3-32.73-25.06l-36.15-133.75h167.9v-42h-158.88l48.74-107.23c5.49-12.07,17.6-19.87,30.86-19.87h283.35c13.26,0,25.38,7.8,30.86,19.87l48.74,107.23h-162.13v42h171.15l-36.15,133.75Z"/><rect class="cls-1" x="495.37" y="503.02" width="98.16" height="85.76" rx="42.88" ry="42.88"/></svg>