<?xml version="1.0" encoding="UTF-8"?><svg id="Layer_2" xmlns="http://www.w3.org/2000/svg" viewBox="0 0 1080 1080"><defs><style>.cls-1{fill:none;stroke:#fff;stroke-miterlimit:10;stroke-width:42px;}</style></defs><path class="cls-1" d="m784.72,446.29l-111.7-108.82c-7.92-7.72-23-16.42-29.6-12.04-31.02,20.62-67.96,28.02-103.39,27.7h0s-.02,0-.02,0c0,0-.02,0-.02,0h0c-35.43.32-72.37-7.09-103.39-27.7-6.6-4.38-21.68,4.32-29.6,12.04l-111.7,108.82c-7.88,7.68-8.16,20.25-.63,28.27l41.4,44.1c7.73,8.23,20.71,8.52,28.8.65l41.99-40.88c2.71-2.64,7.25-.72,7.25,3.06v231.84c0,23.43,18.99,42.42,42.42,42.42h166.98c23.43,0,42.42-18.99,42.42-42.42v-231.84c0-3.78,4.54-5.7,7.25-3.06l41.99,40.88c8.09,7.88,21.07,7.59,28.8-.65l41.4-44.1c7.53-8.02,7.25-20.6-.63-28.27Z"/></svg>