<?xml version="1.0" encoding="utf-8"?>
<!-- Generator: Adobe Illustrator 27.9.0, SVG Export Plug-In . SVG Version: 6.00 Build 0)  -->
<svg version="1.1" id="Layer_1" xmlns="http://www.w3.org/2000/svg" xmlns:xlink="http://www.w3.org/1999/xlink" x="0px" y="0px"
	 viewBox="0 0 48 48" style="enable-background:new 0 0 48 48;" xml:space="preserve">
<style type="text/css">
	.st0{fill:#DEDEDE;}
	.st1{fill:none;}
</style>
<path class="st0" d="M16,36c-2.2,0-4,1.8-4,4s1.8,4,4,4s4-1.8,4-4S18.2,36,16,36z M4,4v4h4l7.2,15.2l-2.7,4.9
	C12.2,28.6,12,29.3,12,30c0,2.2,1.8,4,4,4h24v-4H16.9c-0.3,0-0.5-0.2-0.5-0.5c0-0.1,0-0.2,0.1-0.2l1.8-3.3h14.9
	c1.5,0,2.8-0.8,3.5-2.1l7.2-13c0.2-0.3,0.2-0.6,0.2-1c0-1.1-0.9-2-2-2H12.4l-1.9-4C10.5,4,4,4,4,4z M36,36c-2.2,0-4,1.8-4,4
	s1.8,4,4,4s4-1.8,4-4S38.2,36,36,36z"/>
<path class="st1" d="M0,0h48v48H0V0z"/>
</svg>
